<?xml version="1.0" encoding="UTF-8" standalone="no"?>
<!DOCTYPE svg PUBLIC "-//W3C//DTD SVG 1.1//EN"
 "http://www.w3.org/Graphics/SVG/1.1/DTD/svg11.dtd">
<!-- Generated by graphviz version 2.40.1 (20161225.0304)
 -->
<!-- Title: G Pages: 1 -->
<svg width="482pt" height="582pt"
 viewBox="0.00 0.00 482.24 582.00" xmlns="http://www.w3.org/2000/svg" xmlns:xlink="http://www.w3.org/1999/xlink">
<g id="graph0" class="graph" transform="scale(1 1) rotate(0) translate(4 578)">
<title>G</title>
<polygon fill="#ffffff" stroke="transparent" points="-4,4 -4,-578 478.2359,-578 478.2359,4 -4,4"/>
<g id="clust1" class="cluster">
<title>cluster_Global</title>
<path fill="none" stroke="#c0c0c0" d="M20,-98C20,-98 454.2359,-98 454.2359,-98 460.2359,-98 466.2359,-104 466.2359,-110 466.2359,-110 466.2359,-554 466.2359,-554 466.2359,-560 460.2359,-566 454.2359,-566 454.2359,-566 20,-566 20,-566 14,-566 8,-560 8,-554 8,-554 8,-110 8,-110 8,-104 14,-98 20,-98"/>
<text text-anchor="middle" x="237.1179" y="-553.2" font-family="Times,serif" font-size="11.00" fill="#c0c0c0">Global</text>
</g>
<g id="clust2" class="cluster">
<title>cluster_\Peresmishnyk</title>
<path fill="none" stroke="#c0c0c0" d="M259.2359,-106C259.2359,-106 446.2359,-106 446.2359,-106 452.2359,-106 458.2359,-112 458.2359,-118 458.2359,-118 458.2359,-526 458.2359,-526 458.2359,-532 452.2359,-538 446.2359,-538 446.2359,-538 259.2359,-538 259.2359,-538 253.2359,-538 247.2359,-532 247.2359,-526 247.2359,-526 247.2359,-118 247.2359,-118 247.2359,-112 253.2359,-106 259.2359,-106"/>
<text text-anchor="middle" x="352.7359" y="-525.2" font-family="Times,serif" font-size="11.00" fill="#c0c0c0">Peresmishnyk</text>
</g>
<g id="clust3" class="cluster">
<title>cluster_\Peresmishnyk\LaravelLocalize</title>
<path fill="none" stroke="#c0c0c0" d="M267.2359,-114C267.2359,-114 438.2359,-114 438.2359,-114 444.2359,-114 450.2359,-120 450.2359,-126 450.2359,-126 450.2359,-498 450.2359,-498 450.2359,-504 444.2359,-510 438.2359,-510 438.2359,-510 267.2359,-510 267.2359,-510 261.2359,-510 255.2359,-504 255.2359,-498 255.2359,-498 255.2359,-126 255.2359,-126 255.2359,-120 261.2359,-114 267.2359,-114"/>
<text text-anchor="middle" x="352.7359" y="-497.2" font-family="Times,serif" font-size="11.00" fill="#c0c0c0">LaravelLocalize</text>
</g>
<g id="clust4" class="cluster">
<title>cluster_\Peresmishnyk\LaravelLocalize\Facades</title>
<path fill="none" stroke="#c0c0c0" d="M304.7359,-222C304.7359,-222 400.7359,-222 400.7359,-222 406.7359,-222 412.7359,-228 412.7359,-234 412.7359,-234 412.7359,-282 412.7359,-282 412.7359,-288 406.7359,-294 400.7359,-294 400.7359,-294 304.7359,-294 304.7359,-294 298.7359,-294 292.7359,-288 292.7359,-282 292.7359,-282 292.7359,-234 292.7359,-234 292.7359,-228 298.7359,-222 304.7359,-222"/>
<text text-anchor="middle" x="352.7359" y="-281.2" font-family="Times,serif" font-size="11.00" fill="#c0c0c0">Facades</text>
</g>
<g id="clust5" class="cluster">
<title>cluster_\Peresmishnyk\LaravelLocalize\Providers</title>
<path fill="none" stroke="#c0c0c0" d="M304.7359,-302C304.7359,-302 400.7359,-302 400.7359,-302 406.7359,-302 412.7359,-308 412.7359,-314 412.7359,-314 412.7359,-470 412.7359,-470 412.7359,-476 406.7359,-482 400.7359,-482 400.7359,-482 304.7359,-482 304.7359,-482 298.7359,-482 292.7359,-476 292.7359,-470 292.7359,-470 292.7359,-314 292.7359,-314 292.7359,-308 298.7359,-302 304.7359,-302"/>
<text text-anchor="middle" x="352.7359" y="-469.2" font-family="Times,serif" font-size="11.00" fill="#c0c0c0">Providers</text>
</g>
<g id="clust6" class="cluster">
<title>cluster_Global\Illuminate</title>
<path fill="none" stroke="#c0c0c0" d="M28,-294C28,-294 182.887,-294 182.887,-294 188.887,-294 194.887,-300 194.887,-306 194.887,-306 194.887,-390 194.887,-390 194.887,-396 188.887,-402 182.887,-402 182.887,-402 28,-402 28,-402 22,-402 16,-396 16,-390 16,-390 16,-306 16,-306 16,-300 22,-294 28,-294"/>
<text text-anchor="middle" x="105.4435" y="-389.2" font-family="Times,serif" font-size="11.00" fill="#c0c0c0">Illuminate</text>
</g>
<g id="clust7" class="cluster">
<title>cluster_Global\Illuminate\Routing</title>
<path fill="none" stroke="#c0c0c0" d="M36,-302C36,-302 174.887,-302 174.887,-302 180.887,-302 186.887,-308 186.887,-314 186.887,-314 186.887,-362 186.887,-362 186.887,-368 180.887,-374 174.887,-374 174.887,-374 36,-374 36,-374 30,-374 24,-368 24,-362 24,-362 24,-314 24,-314 24,-308 30,-302 36,-302"/>
<text text-anchor="middle" x="105.4435" y="-361.2" font-family="Times,serif" font-size="11.00" fill="#c0c0c0">Routing</text>
</g>
<!-- \\Peresmishnyk\\LaravelLocalize\\Facades\\LocalizeRoute -->
<g id="node1" class="node">
<title>\\Peresmishnyk\\LaravelLocalize\\Facades\\LocalizeRoute</title>
<polygon fill="none" stroke="#000000" points="404.7359,-266 300.7359,-266 300.7359,-230 404.7359,-230 404.7359,-266"/>
<text text-anchor="middle" x="352.7359" y="-245.2" font-family="Courier,monospace" font-size="11.00" fill="#000000">LocalizeRoute</text>
</g>
<!-- Facade -->
<g id="node9" class="node">
<title>Facade</title>
<ellipse fill="none" stroke="#000000" cx="105.4435" cy="-72" rx="44.393" ry="18"/>
<text text-anchor="middle" x="105.4435" y="-68.3" font-family="Times,serif" font-size="14.00" fill="#000000">Facade</text>
</g>
<!-- \\Peresmishnyk\\LaravelLocalize\\Facades\\LocalizeRoute&#45;&gt;Facade -->
<g id="edge2" class="edge">
<title>\\Peresmishnyk\\LaravelLocalize\\Facades\\LocalizeRoute&#45;&gt;Facade</title>
<path fill="none" stroke="#000000" d="M300.5436,-243.64C282.7736,-240.5023 263.346,-235.1411 247.2359,-226 191.5251,-194.3889 145.3159,-133.3088 121.9319,-98.3208"/>
<polygon fill="none" stroke="#000000" points="124.6287,-96.0504 116.2193,-89.6058 118.7743,-99.8879 124.6287,-96.0504"/>
</g>
<!-- \\Peresmishnyk\\LaravelLocalize\\Providers\\LocalizeRoute -->
<g id="node2" class="node">
<title>\\Peresmishnyk\\LaravelLocalize\\Providers\\LocalizeRoute</title>
<polygon fill="none" stroke="#000000" points="404.7359,-454 300.7359,-454 300.7359,-418 404.7359,-418 404.7359,-454"/>
<text text-anchor="middle" x="352.7359" y="-433.2" font-family="Courier,monospace" font-size="11.00" fill="#000000">LocalizeRoute</text>
</g>
<!-- \\Peresmishnyk\\LaravelLocalize\\Providers\\Test -->
<g id="node3" class="node">
<title>\\Peresmishnyk\\LaravelLocalize\\Providers\\Test</title>
<polygon fill="none" stroke="#000000" points="379.7359,-400 325.7359,-400 325.7359,-364 379.7359,-364 379.7359,-400"/>
<text text-anchor="middle" x="352.7359" y="-379.2" font-family="Courier,monospace" font-size="11.00" fill="#000000">Test</text>
</g>
<!-- \\Peresmishnyk\\LaravelLocalize\\Providers\\UrlGenerator -->
<g id="node4" class="node">
<title>\\Peresmishnyk\\LaravelLocalize\\Providers\\UrlGenerator</title>
<polygon fill="none" stroke="#000000" points="401.7359,-346 303.7359,-346 303.7359,-310 401.7359,-310 401.7359,-346"/>
<text text-anchor="middle" x="352.7359" y="-325.2" font-family="Courier,monospace" font-size="11.00" fill="#000000">UrlGenerator</text>
</g>
<!-- UrlGenerator -->
<g id="node7" class="node">
<title>UrlGenerator</title>
<ellipse fill="none" stroke="#000000" cx="105.4435" cy="-328" rx="73.387" ry="18"/>
<text text-anchor="middle" x="105.4435" y="-324.3" font-family="Times,serif" font-size="14.00" fill="#c0c0c0">UrlGenerator</text>
</g>
<!-- \\Peresmishnyk\\LaravelLocalize\\Providers\\UrlGenerator&#45;&gt;UrlGenerator -->
<g id="edge3" class="edge">
<title>\\Peresmishnyk\\LaravelLocalize\\Providers\\UrlGenerator&#45;&gt;UrlGenerator</title>
<path fill="none" stroke="#000000" d="M303.5832,-328C270.8701,-328 227.0658,-328 188.9634,-328"/>
<polygon fill="none" stroke="#000000" points="188.8974,-324.5001 178.8973,-328 188.8973,-331.5001 188.8974,-324.5001"/>
</g>
<!-- \\Peresmishnyk\\LaravelLocalize\\AddonServiceProvider -->
<g id="node5" class="node">
<title>\\Peresmishnyk\\LaravelLocalize\\AddonServiceProvider</title>
<polygon fill="none" stroke="#000000" points="428.7359,-212 276.7359,-212 276.7359,-176 428.7359,-176 428.7359,-212"/>
<text text-anchor="middle" x="352.7359" y="-191.2" font-family="Courier,monospace" font-size="11.00" fill="#000000">AddonServiceProvider</text>
</g>
<!-- ServiceProvider -->
<g id="node8" class="node">
<title>ServiceProvider</title>
<ellipse fill="none" stroke="#000000" cx="105.4435" cy="-18" rx="85.5853" ry="18"/>
<text text-anchor="middle" x="105.4435" y="-14.3" font-family="Times,serif" font-size="14.00" fill="#000000">ServiceProvider</text>
</g>
<!-- \\Peresmishnyk\\LaravelLocalize\\AddonServiceProvider&#45;&gt;ServiceProvider -->
<g id="edge1" class="edge">
<title>\\Peresmishnyk\\LaravelLocalize\\AddonServiceProvider&#45;&gt;ServiceProvider</title>
<path fill="none" stroke="#000000" d="M276.518,-183.5286C265.8813,-179.5987 255.7097,-174.2541 247.2359,-167 202.4136,-128.6291 238.8814,-84.3174 194.887,-45 190.2041,-40.815 184.8918,-37.2783 179.2475,-34.2895"/>
<polygon fill="none" stroke="#000000" points="180.688,-31.0994 170.1474,-30.0295 177.7202,-37.4391 180.688,-31.0994"/>
</g>
<!-- \\Peresmishnyk\\LaravelLocalize\\AutomaticServiceProvider -->
<g id="node6" class="node">
<title>\\Peresmishnyk\\LaravelLocalize\\AutomaticServiceProvider</title>
<polygon fill="none" stroke="#000000" points="442.2359,-158 263.2359,-158 263.2359,-122 442.2359,-122 442.2359,-158"/>
<text text-anchor="middle" x="352.7359" y="-137.2" font-family="Courier,monospace" font-size="11.00" fill="#000000">AutomaticServiceProvider</text>
</g>
</g>
</svg>
